<?xml version="1.0" encoding="UTF-8" standalone="no"?>
<!-- Created with Inkscape (http://www.inkscape.org/) -->

<svg
   xmlns:dc="http://purl.org/dc/elements/1.1/"
   xmlns:cc="http://creativecommons.org/ns#"
   xmlns:rdf="http://www.w3.org/1999/02/22-rdf-syntax-ns#"
   xmlns:svg="http://www.w3.org/2000/svg"
   xmlns="http://www.w3.org/2000/svg"
   xmlns:sodipodi="http://sodipodi.sourceforge.net/DTD/sodipodi-0.dtd"
   xmlns:inkscape="http://www.inkscape.org/namespaces/inkscape"
   version="1.1"
   id="svg3805"
   width="30"
   height="30"
   viewBox="0 0 30 30"
   sodipodi:docname="lingua-pupuli4.svg"
   inkscape:version="0.92.4 (5da689c313, 2019-01-14)">
  <metadata
     id="metadata3811">
    <rdf:RDF>
      <cc:Work
         rdf:about="">
        <dc:format>image/svg+xml</dc:format>
        <dc:type
           rdf:resource="http://purl.org/dc/dcmitype/StillImage" />
        <dc:title></dc:title>
      </cc:Work>
    </rdf:RDF>
  </metadata>
  <defs
     id="defs3809" />
  <sodipodi:namedview
     pagecolor="#ffffff"
     bordercolor="#666666"
     borderopacity="1"
     objecttolerance="10"
     gridtolerance="10"
     guidetolerance="10"
     inkscape:pageopacity="0"
     inkscape:pageshadow="2"
     inkscape:window-width="2046"
     inkscape:window-height="1026"
     id="namedview3807"
     showgrid="false"
     inkscape:zoom="2.775658"
     inkscape:cx="98.987399"
     inkscape:cy="120.19255"
     inkscape:window-x="-8"
     inkscape:window-y="-8"
     inkscape:window-maximized="1"
     inkscape:current-layer="svg3805"
     fit-margin-top="0"
     fit-margin-left="0"
     fit-margin-right="0"
     fit-margin-bottom="0" />
  <path
     style="fill:#ffffff;stroke-width:0.11809018"
     d="M 2.1157762,22.23194 2.2859559,2.0231 27.685279,1.72529 l 0.425449,19.82593 -9.785333,5.31812 -0.25527,-4.25449 z"
     id="logoBackground"
     inkscape:connector-curvature="0" />
  <g
     id="pupLogo"
     transform="matrix(0.06815041,0,0,-0.06815041,9.534996,21.85239)">
    <path
       d="m 69.64,46.44 h -23.2 v 23.2 h 23.2 z m -23.2,186.7 h 23.2 v -23.2 h -23.2 z m 128.185,-58.549 h -53.23 l 0.016,0.017 -28.57,28.57 v 53.163 H 23.239 v -69.602 h 53.23 l 28.537,-28.537 0.017,0.017 v -36.858 l -0.034,0.034 -28.553,-28.554 v 0 H 23.239 V 23.239 h 69.602 v 53.196 0 l 28.553,28.554 h 53.231 z"
       style="fill:#ffae1a"
       id="path3723"
       inkscape:connector-curvature="0" />
  </g>
  <path
     id="speechBubble"
     d="M 26.25,0 H 3.7499998 C 1.6816413,0 0,1.68164 0,3.75 v 16.875 c 0,2.06836 1.6816413,3.75 3.7499998,3.75 H 16.460411 v 4.92188 c 0,0.41601 0.339844,0.70312 0.703124,0.70312 0.140627,0 0.287111,-0.041 0.416017,-0.14062 L 24.89791,24.375 H 26.25 c 2.068359,0 3.75,-1.68164 3.75,-3.75 V 3.75 C 30,1.68164 28.318359,0 26.25,0 Z m 0.937499,20.625 c 0,0.51562 -0.421873,0.9375 -0.937499,0.9375 h -2.28959 l -0.75,0.5625 -3.937498,2.95313 V 21.5625 H 3.7499998 c -0.515625,0 -0.9374996,-0.42188 -0.9374996,-0.9375 V 3.75 c 0,-0.51562 0.4218746,-0.9375 0.9374996,-0.9375 H 26.25 c 0.515626,0 0.937499,0.42188 0.937499,0.9375 z"
     inkscape:connector-curvature="0"
     style="fill:#45484c;stroke-width:0.05859375"
     sodipodi:nodetypes="ssssscssccssssssccccsssssss" />
</svg>
